# AST/ASF file generated using VICON BodyLanguage
# -----------------------------------------------
:version 1.10
:name VICON
:units
  mass 1.0
  length 0.45
  angle deg
:documentation
   .ast/.asf automatically generated from VICON data using
   VICON BodyBuilder and BodyLanguage model FoxedUp or BRILLIANT.MOD
:root
   order TX TY TZ RX RY RZ
   axis XYZ
   position 0 0 0  
   orientation 0 0 0 
:bonedata
  begin
     id 1 
     name lhipjoint
     direction 0.54267 -0.795011 0.271047 
     length 2.39899 
     axis 0 0 0  XYZ
  end
  begin
     id 2 
     name lfemur
     direction 0.34202 -0.939693 0  
     length 7.49701  
     axis 0 0 20  XYZ
    dof rx ry rz
    limits (-160.0 20.0)
           (-70.0 70.0)
           (-60.0 70.0)
  end
  begin
     id 3 
     name ltibia
     direction 0.34202 -0.939693 0   
     length 8.1668   
     axis 0 0 20   XYZ
    dof rx
    limits (-10.0 170.0)
  end
  begin
     id 4 
     name lfoot
     direction 0.0736283 -0.202292 0.976554   
     length 2.13544   
     axis -90 7.62852e-016 20   XYZ
    dof rx rz
    limits (-45.0 90.0)
           (-70.0 20.0)
  end
  begin
     id 5 
     name ltoes
     direction 1.53557e-011 -4.22024e-011 1   
     length 1.07411   
     axis -90 7.62852e-016 20   XYZ
    dof rx
    limits (-90.0 20.0)
  end
  begin
     id 6 
     name rhipjoint
     direction -0.538061 -0.797813 0.272002   
     length 2.39057  
     axis 0 0 0  XYZ 
  end
  begin
     id 7 
     name rfemur
     direction -0.34202 -0.939693 0   
     length 7.50152   
     axis 0 0 -20   XYZ
    dof rx ry rz
    limits (-160.0 20.0)
           (-70.0 70.0)
           (-70.0 60.0)
  end
  begin
     id 8 
     name rtibia
     direction -0.34202 -0.939693 0   
     length 8.05793   
     axis 0 0 -20   XYZ
    dof rx
    limits (-10.0 170.0)
 end
 begin
     id 9 
     name rfoot
     direction -0.0765195 -0.210236 0.974652   
     length 2.28698  
     axis -90 -7.62852e-016 -20   XYZ
    dof rx rz
    limits (-45.0 90.0)
           (-20.0 70.0)
  end
  begin
     id 10 
     name rtoes
     direction -1.53542e-011 -4.21847e-011 1   
     length 1.14762   
     axis -90 -7.62852e-016 -20   XYZ
    dof rx
    limits (-90.0 20.0)
  end
  begin
     id 11 
     name lowerback
     direction -0.0217239 0.996592 -0.0795765   
     length 2.08176   
     axis 0 0 0   XYZ
    dof rx ry rz
    limits (-20.0 45.0)
           (-30.0 30.0)
           (-30.0 30.0)
  end
  begin
     id 12 
     name upperback
     direction -0.00563773 0.999651 -0.0258155   
     length 2.08898   
     axis 0 0 0   XYZ
    dof rx ry rz
    limits (-20.0 45.0)
           (-30.0 30.0)
           (-30.0 30.0)
  end
  begin
     id 13 
     name thorax
     direction 0.0032706 0.999923 0.0119599   
     length 2.0968   
     axis 0 0 0   XYZ
    dof rx ry rz
    limits (-20.0 45.0)
           (-30.0 30.0)
           (-30.0 30.0)
  end
  begin
     id 14 
     name lowerneck
     direction -0.0285886 0.99568 0.0883427   
     length 1.81272   
     axis 0 0 0   XYZ
    dof rx ry rz
    limits (-20.0 45.0)
           (-30.0 30.0)
           (-30.0 30.0)
  end
  begin
     id 15 
     name upperneck
     direction 0.0807535 0.97985 -0.18268   
     length 1.82518   
     axis 0 0 0   XYZ
    dof rx ry rz
    limits (-20.0 45.0)
           (-30.0 30.0)
           (-30.0 30.0)
  end
  begin
     id 16
     name head
     direction 0.0236605 0.997053 -0.0729767  
     length 1.84443  
     axis 0 0 0   XYZ
    dof rx ry rz
    limits (-20.0 45.0)
           (-30.0 30.0)
           (-30.0 30.0)
  end
  begin
     id 17 
     name lclavicle
     direction 0.918986 0.39378 -0.0200683  
     length 3.27822  
     axis 0 0 0   XYZ
    dof ry rz
    limits (-20.0 10.0)
           (0.0 20.0)
  end
  begin
     id 18 
     name lhumerus
     direction 1 -4.4897e-011 2.09544e-027   
     length 5.5568   
     axis 180 -30 -90   XYZ
    dof rx ry rz
    limits (-60.0 90.0)
           (-90.0 90.0)
           (-90.0 90.0)
  end
  begin
     id 19
     name lradius
     direction 1 -4.48957e-011 -1.27696e-026   
     length 3.63979   
     axis 180 -30 -90   XYZ
    dof rx
    limits (-10.0 170.0)
  end
  begin
     id 20
     name lwrist
     direction 1 -4.49001e-011 -1.49001e-026   
     length 1.8199   
     axis 9.0955e-015 90 90   XYZ
    dof ry
    limits (-180.0 0.0)
 end
  begin
     id 21 
     name lhand
     direction 1 -4.48709e-011 -2.9758e-026   
     length 0.569419   
     axis 1.90115e-014 90 90   XYZ
    dof rx rz
    limits (-90.0 90.0)
           (-45.0 45.0)
  end
  begin
     id 22 
     name lfingers
     direction 1 -4.49175e-011 -5.96505e-026   
     length 0.45908   
     axis 3.80223e-014 90 90   XYZ
    dof rx
    limits (0.0 90.0)
  end
  begin
     id 23
     name lthumb
     direction 0.707107 -6.34864e-011 0.707107   
     length 0.65915   
     axis -90 45 -3.84942e-014   XYZ
    dof rx rz
    limits (-45.0 45.0)
           (-45.0 45.0)
  end
  begin
     id 24 
     name rclavicle
     direction -0.911913 0.396426 -0.106115   
     length 3.46301  
     axis 0 0 0   XYZ 
    dof ry rz
    limits (-10.0 20.0)
           (-20.0 0.0)
  end
  begin
     id 25 
     name rhumerus
     direction -1 -4.48965e-011 7.78516e-028  
     length 5.34339   
     axis 180 30 90   XYZ
    dof rx ry rz
    limits (-90.0 60.0)
           (-90.0 90.0)
           (-90.0 90.0)
  end
  begin
     id 26 
     name rradius
     direction -1 -4.48948e-011 -5.79823e-027   
     length 3.65101   
     axis 180 30 90   XYZ
    dof rx
    limits (-10.0 170.0)
  end
  begin
     id 27 
     name rwrist
     direction -1 -4.48995e-011 -1.48996e-026   
     length 1.8255   
     axis 9.0955e-015 -90 -90   XYZ
    dof ry
    limits (-180.0 0.0)
  end
  begin
     id 28
     name rhand
     direction -1 -4.48957e-011 -2.97937e-026   
     length 0.694249   
     axis 1.90115e-014 -90 -90   XYZ
    dof rx rz
    limits (-90.0 90.0)
           (-45.0 45.0)
  end
  begin
     id 29
     name rfingers
     direction -1 -4.4898e-011 -5.95943e-026   
     length 0.559721   
     axis 3.80223e-014 -90 -90   XYZ
    dof rx
    limits (0.0 90.0)
  end
  begin
     id 30
     name rthumb
     direction -0.707107 -6.34969e-011 0.707107   
     length 0.803651   
     axis -90 -45 3.84942e-014   XYZ
    dof rx rz
    limits (-45.0 45.0)
           (-45.0 45.0)
  end
:hierarchy
  begin
    root lhipjoint rhipjoint lowerback
    lhipjoint lfemur
    lfemur ltibia
    ltibia lfoot
    lfoot ltoes
    rhipjoint rfemur
    rfemur rtibia
    rtibia rfoot
    rfoot rtoes
    lowerback upperback
    upperback thorax
    thorax lowerneck lclavicle rclavicle
    lowerneck upperneck
    upperneck head
    lclavicle lhumerus
    lhumerus lradius
    lradius lwrist
    lwrist lhand lthumb
    lhand lfingers
    rclavicle rhumerus
    rhumerus rradius
    rradius rwrist
    rwrist rhand rthumb
    rhand rfingers
  end

#!OML:ASF H:\Terrain\Walking\May29\JustinRory\rory.ASF
:FULLY-SPECIFIED
:DEGREES
163
root 9.23872 17.2616 -16.1551 -6.41409 57.4529 -6.60492
lowerback 12.8686 2.85126 -6.73794
upperback 7.30793 3.27468 -2.55155
thorax 0.297895 1.60321 0.707901
lowerneck 2.81064 -20.2905 -19.2407
upperneck 4.50128 -30.0795 26.3168
head 8.09073 -14.7595 7.88978
rclavicle -4.05521e-014 2.8625e-014
rhumerus 36.6435 -74.3044 -72.929
rradius 12.9073
rwrist 26.3098
rhand -21.7368 20.2524
rfingers 7.12502
rthumb 4.66293 -9.67625
lclavicle -4.05521e-014 2.8625e-014
lhumerus -36.2985 21.8911 38.9593
lradius 28.7175
lwrist 10.0111
lhand -32.1885 31.5799
lfingers 7.12502
lthumb -5.4307 61.4903
rfemur -17.4122 1.31857 5.20329
rtibia 26.9443
rfoot -2.01811 -14.526
rtoes -5.56213
lfemur -28.3038 -4.40458 -14.2265
ltibia 54.2236
lfoot -18.4204 6.39709
ltoes -8.98888
164
root 9.21863 17.2704 -16.0913 -6.67025 57.565 -6.87423
lowerback 12.9968 2.90347 -6.68957
upperback 7.17278 3.32331 -2.50187
thorax 0.0816449 1.63322 0.716049
lowerneck 3.02366 -20.2298 -19.4323
upperneck 4.96625 -30.0832 26.1046
head 8.19473 -14.7652 7.86618
rclavicle -4.6118e-014 2.22639e-014
rhumerus 44.4939 -76.7085 -81.349
rradius 12.6347
rwrist 30.0995
rhand -22.2199 20.2804
rfingers 7.12502
rthumb 4.19647 -9.65799
lclavicle -4.6118e-014 2.22639e-014
lhumerus -36.3509 21.8397 38.7588
lradius 28.9303
lwrist 11.1483
lhand -31.6361 31.704
lfingers 7.12502
lthumb -4.8974 61.6274
rfemur -17.3953 1.63525 5.51951
rtibia 27.2221
rfoot -2.8816 -14.844
rtoes -1.91383
lfemur -28.8121 -4.33611 -14.0578
ltibia 55.1706
lfoot -18.0735 7.09428
ltoes -5.81149
165
root 9.2021 17.2783 -16.0231 -7.52405 57.8634 -7.67984
lowerback 13.3139 2.94941 -6.36836
upperback 6.92561 3.36777 -2.3697
thorax -0.347607 1.67135 0.646259
lowerneck 4.07259 -20.0949 -19.4672
upperneck 5.0027 -29.9975 25.9588
head 7.98579 -14.8151 7.97234
rclavicle -5.725e-014 -1.59028e-014
rhumerus 48.2772 -78.3274 -85.472
rradius 12.3791
rwrist 32.5123
rhand -22.7168 20.5644
rfingers 7.12502
rthumb 3.71663 -9.38295
lclavicle -5.725e-014 -1.59028e-014
lhumerus -36.5517 20.7456 38.8012
lradius 29.4506
lwrist 12.6914
lhand -31.1901 31.5852
lfingers 7.12502
lthumb -4.46675 61.5181
rfemur -17.1032 1.8022 6.14916
rtibia 27.4828
rfoot -3.7685 -15.2019
rtoes 1.8089
lfemur -29.2618 -4.30894 -13.6942
ltibia 56.2512
lfoot -17.4855 8.25169
ltoes -5.0484
166
root 9.19002 17.2828 -15.9602 -8.29578 58.2809 -8.4332
lowerback 13.6823 3.07329 -5.73353
upperback 6.78224 3.56319 -2.35171
thorax -0.678454 1.79134 0.260764
lowerneck 4.81457 -20.2109 -19.1983
upperneck 4.59823 -30.1398 25.8772
head 7.70394 -14.9588 7.97611
rclavicle -2.14687e-014 4.77083e-014
rhumerus 44.2427 -79.1134 -81.6349
rradius 12.5542
rwrist 32.543
rhand -23.0526 20.2464
rfingers 7.12502
rthumb 3.39232 -9.70639
lclavicle -2.14687e-014 4.77083e-014
lhumerus -36.0378 19.3254 39.2277
lradius 29.9988
lwrist 13.677
lhand -30.6302 31.9195
lfingers 7.12502
lthumb -3.92605 61.863
rfemur -16.7672 1.47554 6.72729
rtibia 27.6468
rfoot -4.14247 -15.2028
rtoes 2.19051
lfemur -29.8726 -4.24571 -13.501
ltibia 57.4243
lfoot -16.7833 9.53871
ltoes -4.60651
167
root 9.18158 17.2926 -15.8975 -8.76872 58.5942 -8.94892
lowerback 13.8469 3.10424 -5.25739
upperback 6.81484 3.65338 -2.33166
thorax -0.713273 1.84816 -0.00377123
lowerneck 4.931 -20.3402 -19.086
upperneck 4.1594 -30.2464 25.8922
head 7.5526 -15.0365 7.96002
rclavicle -1.82882e-014 -2.06736e-014
rhumerus 37.4073 -78.7812 -75.0693
rradius 13.0027
rwrist 31.4348
rhand -22.6402 20.1401
rfingers 7.12502
rthumb 3.79058 -9.80592
lclavicle -1.82882e-014 -2.06736e-014
lhumerus -35.8201 18.6714 39.4461
lradius 30.7883
lwrist 13.9428
lhand -29.0264 32.1185
lfingers 7.12502
lthumb -2.37723 62.085
rfemur -16.5838 1.12234 7.17357
rtibia 27.8058
rfoot -4.33523 -15.0972
rtoes 1.35394
lfemur -30.6216 -3.99203 -13.4545
ltibia 58.5864
lfoot -16.2952 10.4777
ltoes -1.92691
168
root 9.17399 17.3063 -15.8272 -9.6752 58.7496 -10.0886
lowerback 13.8068 3.08266 -4.68785
upperback 6.8459 3.69963 -2.17916
thorax -0.642153 1.87935 -0.164587
lowerneck 5.0279 -20.355 -18.9464
upperneck 3.86756 -30.2222 25.9678
head 7.43032 -15.0434 7.99015
rclavicle 0 3.18055e-015
rhumerus 29.8107 -77.6101 -67.7724
rradius 13.4998
rwrist 29.1645
rhand -21.7719 20.4037
rfingers 7.12502
rthumb 4.62902 -9.52572
lclavicle 0 3.18055e-015
lhumerus -35.7642 18.3106 39.5788
lradius 31.4913
lwrist 14.0407
lhand -27.5867 31.3395
lfingers 7.12502
lthumb -0.986752 61.317
rfemur -16.5516 1.03464 8.036
rtibia 27.9735
rfoot -4.54591 -15.268
rtoes 0.840527
lfemur -31.4217 -3.55899 -13.0342
ltibia 59.6797
lfoot -15.5594 11.4134
ltoes 0.773375
169
root 9.16951 17.3169 -15.7594 -10.4876 58.9664 -11.2704
lowerback 13.7426 3.04253 -4.08085
upperback 6.72628 3.7136 -2.05326
thorax -0.71151 1.89644 -0.373357
lowerneck 5.19943 -20.3641 -18.7186
upperneck 3.56597 -30.181 25.9766
head 7.26187 -15.0482 8.00579
rclavicle 2.38542e-015 6.36111e-015
rhumerus 21.5305 -75.589 -59.8167
rradius 14.052
rwrist 25.9165
rhand -21.6119 19.7997
rfingers 7.12502
rthumb 4.78355 -10.1263
lclavicle 2.38542e-015 6.36111e-015
lhumerus -35.7148 17.4353 39.8362
lradius 32.1985
lwrist 14.2825
lhand -26.4708 30.5979
lfingers 7.12502
lthumb 0.091025 60.5776
rfemur -16.6222 0.971227 8.871
rtibia 28.0851
rfoot -4.94884 -15.5731
rtoes 1.59046
lfemur -32.3028 -3.14705 -12.6848
ltibia 60.6925
lfoot -14.8143 12.3742
ltoes 2.69223
170
root 9.16805 17.3258 -15.696 -11.2894 59.2287 -12.453
lowerback 13.6131 2.83564 -3.54082
upperback 6.67513 3.50894 -1.85459
thorax -0.677513 1.80025 -0.4322
lowerneck 5.07049 -20.2781 -18.7842
upperneck 3.09707 -29.9816 26.1351
head 7.13074 -14.962 8.09847
rclavicle 0 -1.59028e-014
rhumerus 17.4413 -73.4354 -55.9535
rradius 14.3985
rwrist 23.1381
rhand -22.3509 19.3004
rfingers 7.12502
rthumb 4.06996 -10.6405
lclavicle 0 -1.59028e-014
lhumerus -36.2685 16.947 39.8834
lradius 33.2543
lwrist 14.0287
lhand -24.8129 30.1467
lfingers 7.12502
lthumb 1.69223 60.1197
rfemur -16.6719 1.09036 9.65549
rtibia 28.1789
rfoot -5.53942 -16.0445
rtoes 3.79301
lfemur -33.1692 -2.86726 -12.3528
ltibia 61.6466
lfoot -15.0384 12.8996
ltoes 5.46597
171
root 9.16633 17.3367 -15.6319 -12.3351 59.4613 -13.7005
lowerback 13.5674 2.56101 -3.02879
upperback 6.79539 3.22039 -1.64986
thorax -0.509448 1.66302 -0.457788
lowerneck 4.69917 -20.2011 -18.8661
upperneck 2.84996 -29.8246 26.3888
head 7.14121 -14.8656 8.17905
rclavicle -6.52014e-014 2.54444e-014
rhumerus 17.8488 -73.0226 -56.6469
rradius 14.6126
rwrist 21.8948
rhand -22.6889 19.4417
rfingers 7.12502
rthumb 3.74349 -10.5051
lclavicle -6.52014e-014 2.54444e-014
lhumerus -36.8622 16.7807 39.7873
lradius 34.4026
lwrist 13.5796
lhand -23.4908 29.3485
lfingers 7.12502
lthumb 2.96909 59.3075
rfemur -16.5273 1.43902 10.4986
rtibia 28.3053
rfoot -5.93702 -16.7174
rtoes 5.27308
lfemur -33.8507 -2.69148 -12.0005
ltibia 62.5825
lfoot -15.8768 13.1465
ltoes 6.43792
